<svg id="Objects" xmlns="http://www.w3.org/2000/svg" viewBox="0 0 132.11 159.26"><defs><style>.cls-1{fill:#00d0ce;}.cls-2{fill:#ff7a2d;}.cls-3{fill:#ffe15c;}.cls-4{fill:#ffd000;}.cls-5{fill:#ffc900;}</style></defs><title>competetions</title><polygon class="cls-1" points="78.46 0.15 66.22 20.86 53.65 0 0 0 39.4 65.38 39.2 65.71 89.45 71.23 132.11 0.15 78.46 0.15"/><polygon class="cls-2" points="88.48 0.15 66.22 34.2 43.63 0 8.02 0 47.41 65.38 55.23 65.71 82.83 65.71 122.09 0.15 88.48 0.15"/><polygon class="cls-3" points="94.49 0.15 66.22 44.22 35.62 0 16.03 0 57.43 65.38 55.23 65.71 74.81 65.71 114.07 0.15 94.49 0.15"/><path class="cls-4" d="M402.55,124.09a50.4,50.4,0,1,0,50.39,50.39A50.46,50.46,0,0,0,402.55,124.09Z" transform="translate(-336.18 -65.61)"/><path class="cls-5" d="M402.55,213.89A39.41,39.41,0,1,1,442,174.48,39.46,39.46,0,0,1,402.55,213.89Z" transform="translate(-336.18 -65.61)"/><path class="cls-3" d="M369.94,196.57a39.39,39.39,0,1,0,62.94-47.21Z" transform="translate(-336.18 -65.61)"/><path class="cls-2" d="M402.55,218.29a43.81,43.81,0,1,1,43.81-43.81A43.86,43.86,0,0,1,402.55,218.29Zm0-78.81a35,35,0,1,0,35,35A35,35,0,0,0,402.55,139.48Z" transform="translate(-336.18 -65.61)"/></svg>