<svg id="Object" xmlns="http://www.w3.org/2000/svg" viewBox="0 0 735.42 648.65"><defs><style>.cls-1{fill:#f8d928;}.cls-2{fill:#020200;}</style></defs><title>events</title><path class="cls-1" d="M206.65,872a46,46,0,0,0,32.26,13.35H883.1a45.61,45.61,0,0,0,45.61-45.61V462.49H193.29V839.71A46,46,0,0,0,206.65,872Zm574-378.87H885.9v93.65H780.64Zm0,119.55H885.9v93.64H780.64ZM644.49,493.1H749.77v93.65H644.49Zm0,119.55H749.77v93.64H644.49Zm0,119.54H749.77v93.65H644.49ZM508.36,493.1H613.64v93.65H508.36Zm0,119.55H613.64v93.64H508.36Zm0,119.54H613.64v93.65H508.36ZM372.23,493.1H477.52v93.65H372.23Zm0,119.55H477.52v93.64H372.23Zm0,119.54H477.52v93.65H372.23ZM236.1,612.65H341.38v93.64H236.1Zm0,119.54H341.38v93.65H236.1Z" transform="translate(-193.29 -236.68)"/><rect class="cls-2" y="182.34" width="735.42" height="27"/><path d="M268.92,289.2h-30a45.61,45.61,0,0,0-45.62,45.6v53H928.71v-53a45.63,45.63,0,0,0-45.61-45.6H805.73v59.71a20.18,20.18,0,0,1-20.19,20.17H743a20.16,20.16,0,0,1-20.17-20.17V289.2H399.17v59.71A20.18,20.18,0,0,1,379,369.08H336.46a20.15,20.15,0,0,1-20.16-20.17V289.2Z" transform="translate(-193.29 -236.68)"/><rect class="cls-1" y="151.12" width="735.42" height="31.22"/><polygon class="cls-1" points="143.17 112.23 185.71 112.23 185.71 52.53 185.71 0 143.17 0 143.17 52.53 143.17 112.23"/><polygon class="cls-1" points="549.73 112.23 592.25 112.23 592.25 52.53 592.25 0 549.73 0 549.73 52.53 549.73 112.23"/><rect x="178.94" y="256.42" width="105.29" height="93.65"/><rect x="315.07" y="256.42" width="105.28" height="93.65"/><rect x="451.2" y="256.42" width="105.29" height="93.65"/><rect x="587.35" y="256.42" width="105.26" height="93.65"/><rect x="42.81" y="375.97" width="105.28" height="93.65"/><rect x="178.94" y="375.97" width="105.29" height="93.65"/><rect x="315.07" y="375.97" width="105.28" height="93.65"/><rect x="451.2" y="375.97" width="105.29" height="93.65"/><rect x="587.35" y="375.97" width="105.26" height="93.65"/><rect x="42.81" y="495.52" width="105.28" height="93.64"/><rect x="178.94" y="495.52" width="105.29" height="93.64"/><rect x="315.07" y="495.52" width="105.28" height="93.64"/><rect x="451.2" y="495.52" width="105.29" height="93.64"/></svg>