<svg id="Layer_1" data-name="Layer 1" xmlns="http://www.w3.org/2000/svg" viewBox="0 0 1261.67 331.04"><defs><style>.cls-1{fill:#e2c01b;}.cls-2{fill-rule:evenodd;}.cls-3{font-size:54px;}.cls-12,.cls-3{font-family:Raleway-Regular, Raleway;}.cls-4{letter-spacing:-0.02em;}.cls-5{letter-spacing:-0.03em;}.cls-6{letter-spacing:-0.03em;}.cls-7{letter-spacing:0em;}.cls-8{letter-spacing:-0.02em;}.cls-9{letter-spacing:-0.01em;}.cls-10{font-size:120px;font-family:Raleway-Bold, Raleway;font-weight:700;}.cls-11{letter-spacing:-0.02em;}.cls-12{font-size:48px;}.cls-13{letter-spacing:-0.01em;}.cls-14{letter-spacing:0em;}.cls-15{letter-spacing:-0.01em;}.cls-16{letter-spacing:0em;}.cls-17,.cls-18{font-size:55px;}.cls-18{letter-spacing:-0.03em;}</style></defs><title>black yellow e summit</title><circle class="cls-1" cx="275.74" cy="55.03" r="54.8"/><polygon class="cls-2" points="284.95 263.47 398.06 263.18 398.35 278.42 285.24 278.42 284.95 331.04 454.62 331.04 454.62 208.64 341.51 208.64 341.51 193.35 545.98 193.35 545.98 136.52 284.95 136.52 284.95 263.47"/><rect y="138.7" width="269.73" height="54.66"/><rect x="82.66" y="208.64" width="187.07" height="54.66"/><rect x="141.39" y="278.7" width="128.34" height="52.34"/><rect class="cls-1" x="596.99" width="6" height="331"/><text class="cls-3" transform="translate(637.99 76)"><tspan class="cls-4">E</tspan><tspan x="31.91" y="0">-CEL</tspan><tspan class="cls-5" x="156.11" y="0">L</tspan><tspan x="186.14" y="0" xml:space="preserve"> II</tspan><tspan class="cls-6" x="226.69" y="0">T</tspan><tspan class="cls-7" x="258.12" y="0" xml:space="preserve"> H</tspan><tspan class="cls-8" x="311.74" y="0">y</tspan><tspan class="cls-7" x="340.03" y="0">de</tspan><tspan class="cls-9" x="405.32" y="0">r</tspan><tspan x="423.89" y="0">abad</tspan></text><text class="cls-10" transform="translate(633.99 223)"><tspan class="cls-11">E</tspan><tspan x="69.96" y="0">-SUMMI</tspan><tspan class="cls-6" x="525.6" y="0">T</tspan></text><text class="cls-12" transform="translate(633.99 317)">“<tspan class="cls-13" x="15.17" y="0">R</tspan><tspan class="cls-14" x="45.79" y="0">e-e</tspan><tspan class="cls-15" x="122.4" y="0">n</tspan><tspan class="cls-16" x="149.81" y="0" xml:space="preserve">visioning India  </tspan><tspan class="cls-17" x="487.43" y="0">2020</tspan><tspan class="cls-18" x="612.06" y="0">”</tspan></text></svg>